PathFileType	4	(x/y/z)	S09_M20_T19
DataRate	CameraRate	NumFrames	NumMarkers	Units	OrigDataRate	OrigDataStartFrame	OrigNumFrames
240	240	6	51	mm	240	70	556
Frame#	Time	Sternum			R.Acromium			L.Acromium			Top.Head			R.ASIS			L.ASIS			R.PSIS			L.PSIS			R.Great.Tro			L.Great.Tro			R.Iliac.Crest			L.Iliac.Crest			V.Sacral			R.Thigh.Upper.Post			R.Thigh.Lower.Ant			R.Thigh.Lower.Post			R.Thigh.Upper.Ant			R.Knee.Lat			R.Knee.Med			R.Shank.Upper.Post			R.Shank.Lower.Ant			R.Shank.Lower.Post			R.Shank.Upper.Ant			R.Ankle.Lat			R.Ankle.Med			R.Heel.Upper			R.Heel.Med			R.Heel.Lat			R.Toe.Lat			R.Toe.Med			R.Toe.Tip			L.Thigh.Upper.Post			L.Thigh.Lower.Ant			L.Thigh.Lower.Post			L.Thigh.Upper.Ant			L.Knee.Lat			L.Knee.Med			L.Shank.Upper.Post			L.Shank.Lower.Ant			L.Shank.Lower.Post			L.Shank.Upper.Ant			L.Ankle.Lat			L.Ankle.Med			L.Heel.Upper			L.Heel.Med			L.Heel.Lat			L.Toe.Lat			L.Toe.Med			L.Toe.Tip			Cervical.Spine			Back			
		X1	Y1	Z1	X2	Y2	Z2	X3	Y3	Z3	X4	Y4	Z4	X5	Y5	Z5	X6	Y6	Z6	X7	Y7	Z7	X8	Y8	Z8	X9	Y9	Z9	X10	Y10	Z10	X11	Y11	Z11	X12	Y12	Z12	X13	Y13	Z13	X14	Y14	Z14	X15	Y15	Z15	X16	Y16	Z16	X17	Y17	Z17	X18	Y18	Z18	X19	Y19	Z19	X20	Y20	Z20	X21	Y21	Z21	X22	Y22	Z22	X23	Y23	Z23	X24	Y24	Z24	X25	Y25	Z25	X26	Y26	Z26	X27	Y27	Z27	X28	Y28	Z28	X29	Y29	Z29	X30	Y30	Z30	X31	Y31	Z31	X32	Y32	Z32	X33	Y33	Z33	X34	Y34	Z34	X35	Y35	Z35	X36	Y36	Z36	X37	Y37	Z37	X38	Y38	Z38	X39	Y39	Z39	X40	Y40	Z40	X41	Y41	Z41	X42	Y42	Z42	X43	Y43	Z43	X44	Y44	Z44	X45	Y45	Z45	X46	Y46	Z46	X47	Y47	Z47	X48	Y48	Z48	X49	Y49	Z49	X50	Y50	Z50	X51	Y51	Z51	

70	0.2875	-368.23	1178.3	254.25	-529.03	1411.4	399.76	-525.72	1408.2	88.95	-527.91	1714.1	241.05	-407.53	994.78	364.81	-388.7	1017.7	118.67	-622.99	1010.8	267.76	-609.33	1022	180.64	-495.61	895.51	422.54	-439.81	925.3	41.285	-506.93	1064.9	405.09	-506.24	1103	77.541	-632.7	981.44	215.06	-479.65	651.05	415.28	-397.73	551.56	404.87	-476.96	557.68	397.47	-407.98	641.01	419.19	-430.23	471.89	401.07	-414.74	454.82	278.69	-600.41	411.31	397.98	-609.06	320.63	391.7	-662.6	367.79	385.59	-552.81	367.38	404.48	-798.88	239.52	364.31	-762.54	219.93	281.8	-841.56	279.71	302.54	-854.78	252.76	269.88	-871.36	261.56	333.3	-805.88	124.54	404.83	-753.92	86.987	312.28	-724.71	58.049	363.91	-447.5	653.82	93.464	-346.6	579.01	108.08	-414.26	571.97	120.3	-376.47	658.15	77.828	-347.53	501.62	121.17	-338.15	522.95	255.3	-399.53	373.43	108.41	-343.92	279.85	128.82	-405.51	296.91	116.95	-338.73	357.28	121.65	-409.12	100.35	143.65	-397.94	97.523	237.25	-484.43	70.669	196.21	-471.08	47.697	230.31	-483.05	40.512	170.09	-310.2	40.777	115.9	-271.89	47.089	225.9	-222.57	62.22	164.83	-610.02	1453.3	252.82	-633.21	1180.8	238.51
71	0.29167	-363.46	1179.5	254.16	-524.19	1412.4	399.5	-520.34	1409.6	88.731	-522.31	1715.4	240.92	-402.84	996.17	364.42	-383.98	1018.8	118.29	-618.21	1012.1	267.26	-604.52	1023.3	180.19	-490.64	896.76	422.05	-435.28	926.16	40.911	-502.14	1066.2	404.68	-501.31	1104.1	77.031	-627.96	982.72	214.56	-471.17	652.35	415.23	-387.95	553.92	404.7	-467.39	559.03	397.51	-399.25	643.2	418.99	-419.65	473.79	400.74	-404.04	456.94	278.28	-589.34	411.6	397.46	-596.96	320.82	391.26	-651.02	367.38	385.06	-541.25	368.19	404	-785.89	237.51	363.77	-749.17	218.38	281.2	-829.56	276.51	301.91	-842.22	249.11	269.39	-858.94	257.86	332.77	-790.31	122.69	404.7	-737.52	85.927	312.26	-707.64	57.992	363.98	-445.05	654.73	93.076	-344.68	579.2	107.72	-412.44	572.6	119.81	-373.91	658.57	77.493	-346.19	501.7	120.82	-336.63	523.03	254.94	-398.75	373.53	108.14	-343.35	279.81	128.55	-404.92	297.03	116.74	-337.99	357.23	121.33	-408.96	100.43	143.59	-397.77	97.683	237.17	-484.37	70.809	196.23	-471.04	47.814	230.31	-483	40.675	170.08	-310.15	40.702	115.84	-271.83	46.97	225.87	-222.48	61.956	164.79	-604.91	1454.6	252.49	-628.32	1182.2	237.69
72	0.29583	-358.71	1180.6	254.07	-519.37	1413.5	399.26	-514.97	1411.1	88.522	-516.73	1716.6	240.79	-398.15	997.57	364.01	-379.29	1019.8	117.89	-613.44	1013.4	266.81	-599.73	1024.6	179.76	-485.65	898.02	421.61	-430.77	927.01	40.532	-497.32	1067.4	404.28	-496.42	1105.2	76.532	-623.22	983.96	214.1	-462.72	653.7	415.19	-378.23	556.32	404.5	-457.86	560.42	397.56	-390.57	645.44	418.79	-409.13	475.76	400.38	-393.44	459.1	277.87	-578.3	411.85	396.92	-584.83	320.97	390.81	-639.44	366.88	384.5	-529.71	369.01	403.5	-772.77	235.32	363.22	-735.66	216.66	280.61	-817.4	273.06	301.27	-829.52	245.21	268.93	-846.35	253.92	332.23	-774.53	120.75	404.61	-720.93	84.777	312.28	-690.38	57.89	364.1	-442.63	655.65	92.678	-342.82	579.39	107.35	-410.67	573.23	119.3	-371.39	658.98	77.153	-344.9	501.78	120.46	-335.14	523.1	254.57	-398.02	373.63	107.87	-342.81	279.77	128.28	-404.37	297.15	116.53	-337.28	357.19	120.99	-408.8	100.5	143.53	-397.59	97.843	237.09	-484.32	70.946	196.24	-470.99	47.928	230.3	-482.94	40.837	170.06	-310.1	40.627	115.79	-271.76	46.857	225.83	-222.39	61.698	164.75	-599.81	1455.9	252.15	-623.45	1183.5	236.88
73	0.3	-353.97	1181.8	254	-514.58	1414.5	399.02	-509.61	1412.5	88.324	-511.15	1717.8	240.66	-393.45	998.97	363.58	-374.64	1020.8	117.48	-608.67	1014.6	266.4	-594.96	1025.8	179.38	-480.63	899.3	421.22	-426.27	927.84	40.148	-492.49	1068.7	403.9	-491.58	1106.2	76.044	-618.5	985.18	213.68	-454.32	655.07	415.18	-368.59	558.76	404.27	-448.39	561.87	397.62	-381.94	647.71	418.6	-398.69	477.78	400	-382.93	461.32	277.45	-567.3	412.07	396.35	-572.67	321.09	390.35	-627.84	366.32	383.91	-518.17	369.83	402.99	-759.5	232.96	362.68	-722.03	214.77	280.04	-805.09	269.38	300.61	-816.65	241.07	268.48	-833.58	249.76	331.7	-758.56	118.71	404.54	-704.15	83.55	312.33	-672.94	57.751	364.25	-440.24	656.57	92.274	-341.01	579.58	106.96	-408.97	573.85	118.78	-368.92	659.39	76.81	-343.66	501.86	120.09	-333.67	523.16	254.17	-397.32	373.73	107.61	-342.3	279.75	128	-403.84	297.27	116.32	-336.61	357.16	120.65	-408.66	100.58	143.48	-397.42	98	237	-484.26	71.079	196.26	-470.95	48.037	230.3	-482.89	41	170.05	-310.05	40.553	115.73	-271.69	46.747	225.8	-222.31	61.446	164.7	-594.74	1457.2	251.83	-618.59	1184.8	236.1
74	0.30417	-349.24	1182.9	253.93	-509.81	1415.5	398.8	-504.25	1413.9	88.136	-505.58	1718.9	240.53	-388.75	1000.4	363.14	-370.02	1021.8	117.06	-603.9	1015.9	266.02	-590.21	1027	179.03	-475.59	900.6	420.87	-421.8	928.65	39.758	-487.64	1069.9	403.53	-486.79	1107.3	75.565	-613.78	986.36	213.3	-445.97	656.48	415.17	-359.04	561.23	404.02	-438.98	563.36	397.67	-373.36	650	418.4	-388.32	479.86	399.6	-372.52	463.59	277	-556.34	412.25	395.76	-560.47	321.18	389.89	-616.24	365.67	383.31	-506.65	370.65	402.46	-746.08	230.44	362.14	-708.27	212.73	279.48	-792.61	265.49	299.93	-803.61	236.71	268.04	-820.64	245.38	331.16	-742.41	116.58	404.5	-687.19	82.256	312.41	-655.34	57.582	364.43	-437.88	657.49	91.87	-339.24	579.75	106.56	-407.32	574.46	118.24	-366.49	659.78	76.466	-342.46	501.94	119.71	-332.23	523.21	253.75	-396.66	373.83	107.35	-341.81	279.72	127.71	-403.34	297.4	116.11	-335.98	357.14	120.3	-408.51	100.65	143.43	-397.25	98.154	236.93	-484.21	71.209	196.29	-470.91	48.14	230.3	-482.84	41.162	170.04	-310	40.48	115.67	-271.62	46.639	225.76	-222.22	61.2	164.66	-589.67	1458.5	251.51	-613.74	1186.1	235.33
75	0.30833	-344.52	1184.1	253.87	-505.05	1416.5	398.59	-498.91	1415.3	87.958	-500.03	1720.1	240.4	-384.05	1001.7	362.68	-365.43	1022.7	116.61	-599.14	1017.1	265.68	-585.48	1028.2	178.71	-470.51	901.9	420.58	-417.34	929.44	39.361	-482.8	1071.2	403.16	-482.02	1108.2	75.096	-609.06	987.5	212.96	-437.67	657.92	415.19	-349.58	563.74	403.73	-429.63	564.9	397.72	-364.84	652.32	418.2	-378.02	481.99	399.17	-362.22	465.9	276.55	-545.41	412.39	395.15	-548.25	321.23	389.41	-604.62	364.95	382.69	-495.15	371.47	401.92	-732.52	227.77	361.6	-694.39	210.53	278.93	-779.97	261.38	299.24	-790.4	232.14	267.61	-807.51	240.8	330.64	-726.07	114.38	404.49	-670.06	80.908	312.52	-637.57	57.392	364.64	-435.56	658.4	91.472	-337.51	579.91	106.15	-405.71	575.06	117.7	-364.1	660.16	76.123	-341.3	502.01	119.32	-330.83	523.25	253.3	-396.03	373.92	107.1	-341.35	279.7	127.42	-402.87	297.52	115.9	-335.37	357.11	119.95	-408.37	100.73	143.39	-397.09	98.302	236.85	-484.17	71.336	196.32	-470.86	48.238	230.3	-482.79	41.323	170.04	-309.95	40.41	115.62	-271.55	46.533	225.73	-222.13	60.959	164.61	-584.63	1459.7	251.2	-608.88	1187.3	234.59
